<mxfile host="app.diagrams.net" modified="2023-05-07T03:22:33.174Z" agent="Mozilla/5.0 (Macintosh; Intel Mac OS X 10_15_7) AppleWebKit/537.36 (KHTML, like Gecko) Chrome/112.0.0.0 Safari/537.36" etag="1GvX6GkKUQXRVUCl9XH4" version="21.1.7" type="google">
  <diagram name="Page-1" id="kml903tXRJvYi_v0In8N">
    <mxGraphModel grid="0" page="0" gridSize="10" guides="1" tooltips="1" connect="1" arrows="1" fold="1" pageScale="1" pageWidth="827" pageHeight="1169" math="0" shadow="0">
      <root>
        <mxCell id="0" />
        <mxCell id="1" parent="0" />
        <mxCell id="xCy7tWVTG_8COn19RTg5-12" value="" style="whiteSpace=wrap;html=1;fillColor=#dae8fc;strokeColor=#6c8ebf;" vertex="1" parent="1">
          <mxGeometry x="339" y="101" width="572" height="395" as="geometry" />
        </mxCell>
        <mxCell id="xCy7tWVTG_8COn19RTg5-10" style="edgeStyle=orthogonalEdgeStyle;rounded=0;orthogonalLoop=1;jettySize=auto;html=1;exitX=0;exitY=0.75;exitDx=0;exitDy=0;entryX=0.989;entryY=0.602;entryDx=0;entryDy=0;entryPerimeter=0;" edge="1" parent="1" source="xCy7tWVTG_8COn19RTg5-1" target="xCy7tWVTG_8COn19RTg5-7">
          <mxGeometry relative="1" as="geometry" />
        </mxCell>
        <mxCell id="xCy7tWVTG_8COn19RTg5-1" value="MS365 Share point" style="whiteSpace=wrap;html=1;" vertex="1" parent="1">
          <mxGeometry x="684" y="282" width="120" height="60" as="geometry" />
        </mxCell>
        <mxCell id="xCy7tWVTG_8COn19RTg5-2" value="" style="shape=image;verticalLabelPosition=bottom;labelBackgroundColor=default;verticalAlign=top;aspect=fixed;imageAspect=0;image=data:image/png,iVBORw0KGgoAAAANSUhEUgAAAD4AAAA6CAYAAADoUOpSAAAAAXNSR0IArs4c6QAAAJZlWElmTU0AKgAAAAgABAEaAAUAAAABAAAAPgEbAAUAAAABAAAARgEoAAMAAAABAAIAAIdpAAQAAAABAAAATgAAAAAAAACQAAAAAQAAAJAAAAABAASShgAHAAAAEgAAAISgAQADAAAAAQABAACgAgAEAAAAAQAAAD6gAwAEAAAAAQAAADoAAAAAQVNDSUkAAABTY3JlZW5zaG90oM9vMAAAAAlwSFlzAAAWJQAAFiUBSVIk8AAAAdRpVFh0WE1MOmNvbS5hZG9iZS54bXAAAAAAADx4OnhtcG1ldGEgeG1sbnM6eD0iYWRvYmU6bnM6bWV0YS8iIHg6eG1wdGs9IlhNUCBDb3JlIDYuMC4wIj4KICAgPHJkZjpSREYgeG1sbnM6cmRmPSJodHRwOi8vd3d3LnczLm9yZy8xOTk5LzAyLzIyLXJkZi1zeW50YXgtbnMjIj4KICAgICAgPHJkZjpEZXNjcmlwdGlvbiByZGY6YWJvdXQ9IiIKICAgICAgICAgICAgeG1sbnM6ZXhpZj0iaHR0cDovL25zLmFkb2JlLmNvbS9leGlmLzEuMC8iPgogICAgICAgICA8ZXhpZjpQaXhlbFlEaW1lbnNpb24+NTg8L2V4aWY6UGl4ZWxZRGltZW5zaW9uPgogICAgICAgICA8ZXhpZjpQaXhlbFhEaW1lbnNpb24+NjI8L2V4aWY6UGl4ZWxYRGltZW5zaW9uPgogICAgICAgICA8ZXhpZjpVc2VyQ29tbWVudD5TY3JlZW5zaG90PC9leGlmOlVzZXJDb21tZW50PgogICAgICA8L3JkZjpEZXNjcmlwdGlvbj4KICAgPC9yZGY6UkRGPgo8L3g6eG1wbWV0YT4K1Q0trQAAABxpRE9UAAAAAgAAAAAAAAAdAAAAKAAAAB0AAAAdAAACJPUo/TwAAAHwSURBVGgF7JZfS8JQGMafzUZMzYVCGjRK1IKCCkqpC72KbqOvUPd9iD5AF32EoA/QbXW1giKif1DgujCxQAOjtKIQsp1R0mra5nBSOw+M7Zz3fbf3t+d4JjMQjlbhQDEU3GGuU8cdZjio49Rxh7wButQdYnQNkzpeexUOuaCOfzc6lUqqU5K08z30L8Z1Hafg1PHWrPA3jsPjQBjPoRAqPp/mIVypBHc+D+9VBmyloolZHbR1qZfDYZRigyDwjUSgfZcyujKZRmmmYm0Dvxsdx5PYZ6pZT+4a/rMTUzX1ktsCfj88AuJ2MyKud1+cN1OqqbEd/DUQwO3UtKYJs4Oe/T10FotmyzT5toMTaAJvRQSawFuRreBk184nU1b6rdWGdiSQXb9Z2QpeVjaz+0jMeK8sC/C8bj75nVvZ5VsGnp+bRyXg123618lyGdXjIzB9IuDx6KYLsqx+4nSDBiZbBp5bWDTw+Pop1a1NMJGoBpxxucB9rAC38mnz3uTAZLP1b9Ig8ifAOxRYb7AXnYLwE+XlBaycRsf2JqBcG5Xt4EuJOOaGYhgLBtUeTwsFrB4cYiMta3r+dJwXRfjEfk1Md6BAc+trYJT7GZGt4CuzM1hKTKp9ZR8e1HO/4uKytKseXxsm4PxEHILyZ8ewTMC/AwAA//8rRrCRAAADBUlEQVTtmF9IU3EUx793f12rtvxTBqUr+vsQQq2F1aZiRNCDlNRroNBDhFFB9BC9BD1EJEL0YBQk9JJM0PLFjNSeFAumYKkvmxI5Ddus6YYuu+fC7+K97u5PS++aHhjnd87v/H73fH7n9wfG2XbtWUQMcbmcgren50OM3sSu8ZraZUELd24LvtrX7XjhGRTaNqsFxRYLun1jkniu6z3yzpyF1mqV+BMZXDAI/bNGIByOG8qpAd46PIqbbzvhDQQVkzN++ohNx50pg9OE2s4OaPt6FeemjlUFf3T6FOocdjGhpoFBNPT2w+P3iz7WMA8NwXTY/lfgHD+fUHU2WQy9quD0/ar9+3DXdRIl27aK6VQ3t6B1eES0qZEOOI033L9HSlFWHZxlUlZcBNoBtAAe/ySOPH3OugSdVeCXSg6JlxrR1TmO8vCVCIQjyH9Yn73gdKsTJDvTVHUSOus1be0S8B0/gsgtr0TUaEBw0o/58JykP5GRUVvdfaGaP+N7JTkT9I2Od/yCSJ8fBm7ILxDip7+OIxSYloxVMjTDX6BzNyt1C37VznjcrPhOOTjFfx/zYu6n8hPI5tS9aYNmwMPMmPq/Av8djeLb6GeQVhLO54P+ZZNSt+hfMfCJqnOYz8sVP5RKQxeJoHA2LJxxttXZ+HhbXni/CVp2bNjYpXrFwJd+RKkd3VmEBf4nF06nh7FwO6wnnJCDz0z5+ctuQj4EQqXdr5KCpsGqguscpdAeK10GwRzmAweht25hpqDpgqOqM6GLTDM6kvBMs3imVQU3uCpgKKtguUi0JicHJttuiY+MEF/VXy18ZdMUVcFNZeXYfPlqSggzjY8x192V0phYwaqCcxvMKGh4AtLJyOJsCFPXroB0uqIqOCVvtDtgvX4rKY5A/QNE+vuSik0UpDo4JZjMlv9XW5wtSEaAUzK6Yhs2nr8o7ACWHGmqMF1mCz7vUnfa7YwBT5skxQnWweULlu6fjfL5Ms1er7i8Imu24vKFyDZbcatnG6icZx1cviLZbq/Ziv8BJztAATSKZJ0AAAAASUVORK5CYII=;" vertex="1" parent="1">
          <mxGeometry x="803.9966564941407" y="283" width="62" height="58" as="geometry" />
        </mxCell>
        <mxCell id="xCy7tWVTG_8COn19RTg5-8" style="edgeStyle=orthogonalEdgeStyle;rounded=0;orthogonalLoop=1;jettySize=auto;html=1;entryX=0.014;entryY=0.37;entryDx=0;entryDy=0;entryPerimeter=0;" edge="1" parent="1" source="xCy7tWVTG_8COn19RTg5-3" target="xCy7tWVTG_8COn19RTg5-7">
          <mxGeometry relative="1" as="geometry" />
        </mxCell>
        <mxCell id="xCy7tWVTG_8COn19RTg5-3" value="" style="strokeWidth=1;shadow=0;dashed=0;align=center;html=1;shape=mxgraph.mockup.containers.browserWindow;rSize=0;strokeColor=#666666;strokeColor2=#008cff;strokeColor3=#c4c4c4;mainText=,;recursiveResize=0;" vertex="1" parent="1">
          <mxGeometry x="-190" y="140" width="417" height="301" as="geometry" />
        </mxCell>
        <mxCell id="xCy7tWVTG_8COn19RTg5-4" value="Page 1" style="strokeWidth=1;shadow=0;dashed=0;align=center;html=1;shape=mxgraph.mockup.containers.anchor;fontSize=17;fontColor=#666666;align=left;whiteSpace=wrap;" vertex="1" parent="xCy7tWVTG_8COn19RTg5-3">
          <mxGeometry x="60" y="12" width="110" height="26" as="geometry" />
        </mxCell>
        <mxCell id="xCy7tWVTG_8COn19RTg5-5" value="your-image-server.io/sample.jpg" style="strokeWidth=1;shadow=0;dashed=0;align=center;html=1;shape=mxgraph.mockup.containers.anchor;rSize=0;fontSize=17;fontColor=#666666;align=left;" vertex="1" parent="xCy7tWVTG_8COn19RTg5-3">
          <mxGeometry x="130" y="60" width="250" height="26" as="geometry" />
        </mxCell>
        <mxCell id="xCy7tWVTG_8COn19RTg5-6" value="" style="sketch=0;outlineConnect=0;fontColor=#232F3E;gradientColor=none;fillColor=#D45B07;strokeColor=none;dashed=0;verticalLabelPosition=bottom;verticalAlign=top;align=center;html=1;fontSize=12;fontStyle=0;aspect=fixed;pointerEvents=1;shape=mxgraph.aws4.container_registry_image;" vertex="1" parent="xCy7tWVTG_8COn19RTg5-3">
          <mxGeometry x="132" y="126" width="103" height="103" as="geometry" />
        </mxCell>
        <mxCell id="xCy7tWVTG_8COn19RTg5-9" style="edgeStyle=orthogonalEdgeStyle;rounded=0;orthogonalLoop=1;jettySize=auto;html=1;" edge="1" parent="1" source="xCy7tWVTG_8COn19RTg5-7" target="xCy7tWVTG_8COn19RTg5-1">
          <mxGeometry relative="1" as="geometry" />
        </mxCell>
        <mxCell id="xCy7tWVTG_8COn19RTg5-11" style="edgeStyle=orthogonalEdgeStyle;rounded=0;orthogonalLoop=1;jettySize=auto;html=1;exitX=0;exitY=0.75;exitDx=0;exitDy=0;entryX=0.999;entryY=0.704;entryDx=0;entryDy=0;entryPerimeter=0;" edge="1" parent="1" source="xCy7tWVTG_8COn19RTg5-7" target="xCy7tWVTG_8COn19RTg5-3">
          <mxGeometry relative="1" as="geometry" />
        </mxCell>
        <mxCell id="xCy7tWVTG_8COn19RTg5-7" value="Image proxy" style="whiteSpace=wrap;html=1;fillColor=#ffe6cc;strokeColor=#d79b00;" vertex="1" parent="1">
          <mxGeometry x="427" y="230" width="120" height="162" as="geometry" />
        </mxCell>
      </root>
    </mxGraphModel>
  </diagram>
</mxfile>
